<?xml version="1.0" encoding="iso-8859-1"?>
<!-- Uploaded to: SVG Repo, www.svgrepo.com, Generator: SVG Repo Mixer Tools -->
<!DOCTYPE svg PUBLIC "-//W3C//DTD SVG 1.1//EN" "http://www.w3.org/Graphics/SVG/1.1/DTD/svg11.dtd">
<svg fill="#000000" height="800px" width="800px" version="1.1" id="Capa_1" xmlns="http://www.w3.org/2000/svg" xmlns:xlink="http://www.w3.org/1999/xlink" 
	 viewBox="0 0 503.068 503.068" xml:space="preserve">
<g>
	<path d="M78.876,353.208c-1.188-1.98-3.223-3.303-5.515-3.585c-2.293-0.281-4.586,0.507-6.22,2.141l-22.61,22.61
		c-7.639,7.639-9.092,19.444-3.534,28.708l33.941,56.568c5.132,8.555,13.029,10.71,17.28,11.233
		c0.846,0.104,1.847,0.181,2.964,0.181c4.498,0,10.873-1.238,16.523-6.888l16.954-16.954c2.434-2.434,2.898-6.211,1.128-9.162
		L78.876,353.208z M101.099,453.57c-2.424,2.424-5.17,2.657-7.048,2.426c-1.878-0.231-4.487-1.124-6.25-4.063l-33.941-56.569
		c-2.01-3.351-1.485-7.62,1.278-10.384l15.818-15.818l42.957,71.595L101.099,453.57z"/>
	<path d="M493.105,79.379l-18.381-8.557c-0.836-2.831-1.871-5.612-3.064-8.341h9.711c4.142,0,7.5-3.358,7.5-7.5s-3.358-7.5-7.5-7.5
		h-18.613c-1.837-2.374-3.823-4.667-6-6.844c-0.92-0.92-1.861-1.805-2.818-2.665l10.238-6.631c3.477-2.251,4.47-6.896,2.218-10.372
		c-2.251-3.477-6.895-4.469-10.372-2.218l-15.247,9.875c-4.089-2.257-8.351-4.084-12.725-5.48l3.428-3.428
		c2.929-2.929,2.929-7.678,0-10.606c-2.929-2.929-7.678-2.929-10.606,0l-10.735,10.734c-3.339-0.183-6.687-0.128-10.021,0.154
		l3.956-9.654c1.571-3.833-0.263-8.213-4.096-9.784c-3.833-1.571-8.213,0.263-9.784,4.096L382.349,23.8
		c-2.807,0.988-5.558,2.172-8.248,3.521v-9.665c0-4.142-3.358-7.5-7.5-7.5s-7.5,3.358-7.5,7.5v19.766
		c-1.177,1.032-2.337,2.093-3.46,3.215l-4.167,4.167v-4.521c0-4.143-3.358-7.5-7.5-7.5s-7.5,3.357-7.5,7.5v19.521l-7.627,7.628
		V62.91c0-4.142-3.358-7.5-7.5-7.5s-7.5,3.358-7.5,7.5v19.521l-7.627,7.627v-4.521c0-4.142-3.358-7.5-7.5-7.5s-7.5,3.358-7.5,7.5
		v19.521l-7.627,7.628v-4.521c0-4.142-3.358-7.5-7.5-7.5s-7.5,3.358-7.5,7.5v19.521l-7.627,7.627v-4.521c0-4.142-3.358-7.5-7.5-7.5
		s-7.5,3.358-7.5,7.5v19.521l-7.627,7.628v-4.521c0-4.142-3.358-7.5-7.5-7.5s-7.5,3.358-7.5,7.5v19.521l-7.627,7.627v-4.521
		c0-4.142-3.358-7.5-7.5-7.5s-7.5,3.358-7.5,7.5v19.521l-7.627,7.628v-4.521c0-4.142-3.358-7.5-7.5-7.5s-7.5,3.358-7.5,7.5v19.521
		l-6.006,6.006l-2.109-5.56c-0.007-0.02-0.017-0.038-0.025-0.057c-0.061-0.158-0.132-0.313-0.204-0.466
		c-0.035-0.076-0.068-0.153-0.105-0.227c-0.065-0.127-0.138-0.25-0.211-0.374c-0.057-0.097-0.111-0.197-0.172-0.291
		c-0.056-0.086-0.118-0.168-0.178-0.252c-0.088-0.125-0.176-0.251-0.272-0.37c-0.046-0.057-0.097-0.111-0.145-0.167
		c-0.117-0.137-0.235-0.272-0.361-0.399c-0.013-0.013-0.024-0.028-0.037-0.041c-0.041-0.041-0.085-0.075-0.127-0.115
		c-0.124-0.118-0.249-0.234-0.379-0.343c-0.078-0.064-0.158-0.124-0.238-0.186c-0.11-0.084-0.22-0.168-0.334-0.246
		c-0.104-0.071-0.209-0.136-0.316-0.201c-0.096-0.059-0.193-0.118-0.292-0.172c-0.121-0.067-0.244-0.127-0.368-0.187
		c-0.093-0.045-0.185-0.089-0.279-0.13c-0.127-0.055-0.255-0.104-0.384-0.151c-0.1-0.037-0.2-0.073-0.302-0.106
		c-0.121-0.039-0.244-0.073-0.366-0.105c-0.116-0.031-0.231-0.06-0.348-0.085c-0.11-0.023-0.221-0.043-0.332-0.062
		c-0.132-0.022-0.264-0.042-0.398-0.057c-0.1-0.011-0.199-0.019-0.3-0.026c-0.143-0.011-0.286-0.019-0.43-0.021
		c-0.097-0.001-0.194,0.001-0.291,0.003c-0.142,0.004-0.285,0.009-0.428,0.021c-0.107,0.009-0.214,0.022-0.321,0.036
		c-0.129,0.016-0.257,0.032-0.386,0.056c-0.13,0.023-0.259,0.053-0.388,0.083c-0.104,0.024-0.207,0.047-0.311,0.076
		c-0.157,0.044-0.313,0.097-0.468,0.151c-0.059,0.021-0.119,0.035-0.177,0.058c-0.019,0.007-0.036,0.017-0.055,0.023
		c-0.16,0.063-0.317,0.134-0.474,0.208c-0.073,0.034-0.148,0.065-0.219,0.102c-0.13,0.066-0.255,0.141-0.381,0.215
		c-0.095,0.056-0.191,0.108-0.283,0.167c-0.089,0.058-0.174,0.123-0.261,0.184c-0.122,0.086-0.244,0.171-0.359,0.264
		c-0.061,0.049-0.119,0.104-0.179,0.155c-0.133,0.114-0.264,0.229-0.388,0.351c-0.014,0.014-0.029,0.025-0.043,0.039l-8.389,8.39
		l-4.947-14.839c-2.594-7.783-8.91-13.555-16.895-15.44c-7.983-1.884-16.215,0.453-22.016,6.254l-60.488,60.488
		c-8.972,8.972-13.913,20.9-13.913,33.588v48.207l-9.1,9.101c-18.041,18.041-21.474,45.92-8.347,67.799l33.941,56.568
		c8.854,14.757,23.729,24.427,40.81,26.529c2.31,0.285,4.612,0.425,6.9,0.425c14.631,0,28.602-5.741,39.125-16.265l84.836-84.836
		c4.29-4.29,7.195-9.709,8.563-15.452c0.947,0.432,1.996,0.679,3.104,0.679c4.142,0,7.5-3.358,7.5-7.5v-19.521l7.627-7.627v4.521
		c0,4.143,3.358,7.5,7.5,7.5s7.5-3.357,7.5-7.5v-19.521l7.627-7.627v4.521c0,4.142,3.358,7.5,7.5,7.5s7.5-3.358,7.5-7.5v-19.521
		l7.627-7.627v4.521c0,4.143,3.358,7.5,7.5,7.5s7.5-3.357,7.5-7.5v-19.521l7.627-7.627v4.521c0,4.142,3.358,7.5,7.5,7.5
		s7.5-3.358,7.5-7.5v-19.521l7.627-7.627v4.521c0,4.142,3.358,7.5,7.5,7.5s7.5-3.358,7.5-7.5v-19.521l7.627-7.627v4.521
		c0,4.142,3.358,7.5,7.5,7.5s7.5-3.358,7.5-7.5v-19.521l7.627-7.627v4.521c0,4.142,3.358,7.5,7.5,7.5s7.5-3.358,7.5-7.5v-19.521
		l7.627-7.627v4.521c0,4.142,3.358,7.5,7.5,7.5s7.5-3.358,7.5-7.5v-19.521l7.627-7.627v4.521c0,4.142,3.358,7.5,7.5,7.5
		s7.5-3.358,7.5-7.5v-19.521l7.627-7.628v4.521c0,4.142,3.358,7.5,7.5,7.5s7.5-3.358,7.5-7.5v-21.015
		c2.868-4.061,5.261-8.353,7.182-12.805l4.878,7.224c1.449,2.146,3.814,3.303,6.222,3.303c1.444,0,2.904-0.416,4.19-1.285
		c3.433-2.318,4.336-6.979,2.018-10.413l-12.064-17.865c0.516-3.932,0.705-7.897,0.568-11.855l9.169,4.268
		c1.024,0.477,2.101,0.702,3.16,0.702c2.826,0,5.533-1.605,6.804-4.336C498.488,85.588,496.861,81.127,493.105,79.379z
		 M46.004,294.44c0-8.681,3.381-16.843,9.519-22.981l60.488-60.487c2.13-2.13,5.034-2.954,7.963-2.263
		c2.931,0.692,5.159,2.728,6.111,5.585l7.318,21.954l-91.399,91.399V294.44z M123.727,476.197
		c-8.88,8.88-21.12,13.092-33.586,11.559c-12.464-1.535-23.319-8.591-29.78-19.36l-33.941-56.568
		c-9.579-15.965-7.074-36.31,6.091-49.475l127.545-127.546l52.608,138.693c2.263,5.967,0.615,13.145-4.101,17.86L123.727,476.197z
		 M316.043,261.254C316.043,261.254,316.043,261.254,316.043,261.254l-22.627,22.627c0,0,0,0-0.001,0.001l-22.624,22.624
		c-0.002,0.002-0.004,0.004-0.007,0.006l-22.621,22.621c-0.002,0.002-0.004,0.004-0.007,0.007l-22.62,22.62
		c-0.002,0.002-0.005,0.005-0.008,0.007l-3.673,3.673l-44.075-116.197c0.644-0.341,1.248-0.782,1.79-1.324L349.276,68.215
		c0.001-0.001,0.002-0.002,0.002-0.002l16.969-16.969c22.03-22.03,57.875-22.029,79.903,0c2.086,2.085,3.972,4.296,5.663,6.606
		c0.403,0.972,1.006,1.837,1.755,2.552c14.237,21.892,11.769,51.557-7.418,70.745L316.043,261.254z"/>
	<path d="M406.199,51.694c-10.551,0-20.47,4.109-27.93,11.569c-7.461,7.461-11.57,17.38-11.57,27.931s4.109,20.471,11.57,27.931
		c7.46,7.461,17.379,11.569,27.93,11.569c10.551,0,20.47-4.108,27.931-11.569c7.461-7.46,11.569-17.38,11.569-27.931
		s-4.108-20.47-11.569-27.931C426.669,55.803,416.75,51.694,406.199,51.694z M423.523,108.519
		c-4.627,4.628-10.78,7.176-17.324,7.176c-6.544,0-12.696-2.548-17.324-7.176c-4.627-4.627-7.176-10.78-7.176-17.324
		c0-6.544,2.549-12.696,7.176-17.324c4.627-4.627,10.78-7.176,17.324-7.176c6.544,0,12.697,2.549,17.324,7.176c0,0,0,0,0,0
		c4.627,4.627,7.176,10.78,7.176,17.324C430.699,97.739,428.151,103.891,423.523,108.519z"/>
	<path d="M106.386,330.626c1.919,0,3.839-0.732,5.303-2.197l33.941-33.941c2.929-2.929,2.929-7.677,0-10.606
		c-2.929-2.929-7.678-2.929-10.606,0l-33.941,33.941c-2.929,2.929-2.929,7.678,0,10.606
		C102.547,329.894,104.467,330.626,106.386,330.626z"/>
	<path d="M112.396,340.45c-2.929,2.929-2.929,7.677,0,10.606c1.464,1.464,3.384,2.197,5.303,2.197s3.839-0.732,5.303-2.197
		l33.941-33.941c2.929-2.929,2.929-7.678,0-10.606c-2.928-2.929-7.677-2.93-10.606,0L112.396,340.45z"/>
	<path d="M157.651,329.136l-33.941,33.941c-2.929,2.929-2.929,7.678,0,10.606c1.464,1.465,3.384,2.197,5.303,2.197
		s3.839-0.732,5.303-2.197l33.941-33.941c2.929-2.929,2.929-7.678,0-10.606C165.329,326.207,160.58,326.207,157.651,329.136z"/>
</g>
</svg>